<?xml version="1.0" standalone="no"?>
<!DOCTYPE svg PUBLIC "-//W3C//DTD SVG 20010904//EN"
 "http://www.w3.org/TR/2001/REC-SVG-20010904/DTD/svg10.dtd">
<svg version="1.0" xmlns="http://www.w3.org/2000/svg"
 width="48.000000pt" height="48.000000pt" viewBox="0 0 48.000000 48.000000"
 preserveAspectRatio="xMidYMid meet">

<g transform="translate(0.000000,48.000000) scale(0.100000,-0.100000)"
fill="#000000" stroke="none">
<path d="M137 418 c-12 -10 -20 -48 -32 -153 -8 -77 -19 -157 -24 -177 l-9
-38 168 0 168 0 -8 38 c-5 20 -14 95 -21 167 -16 175 -16 175 -132 175 -59 0
-99 -5 -110 -12z m143 -128 c11 -11 20 -29 20 -40 0 -26 -34 -60 -60 -60 -26
0 -60 34 -60 60 0 11 9 29 20 40 11 11 29 20 40 20 11 0 29 -9 40 -20z"/>
</g>
</svg>
